<svg width="358" height="341" viewBox="0 0 358 341" fill="none" xmlns="http://www.w3.org/2000/svg">
<path d="M274 310.5L88 110.5L86 108.5L84 109L83 110.5V137L267 333.5L270 334.5L273.5 333.5L274 330.5V310.5Z" fill="white"/>
<path d="M23 316.5V12L21 8.5L18.5 6L15.5 4L11.5 3.5L8.5 4L5.5 6L3.5 8.5L2.5 12V333.5L4 336L6 338.5H174.5L178.5 337L181 335L183.5 331.5V326L182 322L179.5 318.5L175.5 316.5C174.7 316.1 73.5 316.333 23 316.5Z" fill="white"/>
<path d="M274 310.5L88 110.5L86 108.5L84 109L83 110.5V137L267 333.5L270 334.5L273.5 333.5L274 330.5V310.5Z" stroke="white" stroke-width="5"/>
<path d="M23 316.5V12L21 8.5L18.5 6L15.5 4L11.5 3.5L8.5 4L5.5 6L3.5 8.5L2.5 12V333.5L4 336L6 338.5H174.5L178.5 337L181 335L183.5 331.5V326L182 322L179.5 318.5L175.5 316.5C174.7 316.1 73.5 316.333 23 316.5Z" stroke="white" stroke-width="5"/>
<path d="M349.5 4.5H151L147.5 7.5L145 11.5V19.5L147.5 23L151 25.5H334V330L336.5 333.5L341 336.5H349.5L352.5 334L355 330V10L353.5 7L349.5 4.5Z" fill="white"/>
<path d="M311 46H150.5L147 49L144.5 53.5L144 58L145.5 63L151 67.5H294V331L296.5 334L301 336.5H309.5L313 334L315.5 330V50.5L314 47.5L311 46Z" fill="white"/>
<path d="M349.5 4.5H151L147.5 7.5L145 11.5V19.5L147.5 23L151 25.5H334V330L336.5 333.5L341 336.5H349.5L352.5 334L355 330V10L353.5 7L349.5 4.5Z" stroke="white" stroke-width="5"/>
<path d="M311 46H150.5L147 49L144.5 53.5L144 58L145.5 63L151 67.5H294V331L296.5 334L301 336.5H309.5L313 334L315.5 330V50.5L314 47.5L311 46Z" stroke="white" stroke-width="5"/>
<path d="M42 292.5L41.5 11L45 7.5L48 7L50.5 7.5L274.5 248V272L273.5 273L272.5 273.5H267.5L63 53.5V275H175L178 276.5L180.5 279L182 282L182.5 285.5V288.5L181 292L176.5 296.5H46L42 292.5Z" fill="white" stroke="white" stroke-width="5"/>
</svg>
